<!-- <?xml version="1.0" encoding="utf-8"?> -->
<!-- Svg Vector Icons : http://www.onlinewebfonts.com/icon -->
<!-- <!DOCTYPE svg PUBLIC "-//W3C//DTD SVG 1.1//EN" "http://www.w3.org/Graphics/SVG/1.1/DTD/svg11.dtd"> -->
<svg version="1.1" xmlns="http://www.w3.org/2000/svg" xmlns:xlink="http://www.w3.org/1999/xlink" x="0px" y="0px" viewBox="0 0 256 256" enable-background="new 0 0 256 256" xml:space="preserve">
<metadata> Svg Vector Icons : http://www.onlinewebfonts.com/icon </metadata>
<g><g><g><path fill="#FFFFFF" d="M124.2,43.8v25.4L94.7,88.8L65,108.5l6.5,0.3l6.5,0.3l0.2,9.2l0.2,9.3H44.2H10v54.9v54.9h118h118v-54.9v-54.9h-34.2h-34.3l0.2-9.3l0.2-9.2l6.5-0.3l6.5-0.3l-29.6-19.7l-29.6-19.7v-8.4v-8.3H149h17.3V35.4V18.5h-21h-21L124.2,43.8L124.2,43.8z M158.1,35.4v9.4l-13-0.1l-13.1-0.2l-0.2-9.3l-0.2-9.2h13.2h13.2V35.4z M144.1,89.2c7.7,5.1,14,9.5,14.1,9.7c0,0.3-13.6,0.5-30.1,0.5c-16.6,0-30.1-0.2-30.1-0.5c0-0.3,6.3-4.6,13.9-9.7c11-7.3,14.4-9.3,16.1-9.3C129.6,80,132.9,81.9,144.1,89.2z M167.5,118.3v9.4H128H88.5v-9.4v-9.4H128h39.5V118.3z M78.4,182.6v44.9H49.2H20v-44.9v-44.9h29.2h29.2V182.6z M95.4,182.6v44.9h-3.5h-3.5v-44.9v-44.9h3.5h3.5V182.6z M153.1,182.6v44.9h-3.5h-3.5v-16.2c0-15.6-0.1-16.2-1.5-19.3c-1.8-3.7-4.8-6.8-8-8.1c-3.5-1.5-14.4-1.3-17.8,0.2c-3.2,1.4-7.4,6.2-8.3,9.4c-0.5,1.6-0.8,8-0.8,18.3v15.8h-3.5h-3.5v-44.9v-44.9H128h25.1V182.6z M167.5,182.6v44.9h-3.5h-3.5v-44.9v-44.9h3.5h3.5V182.6z M236,182.6v44.9h-29.2h-29.2v-44.9v-44.9h29.2H236V182.6z M135.3,188.8c2.3,1.2,4.3,3.5,5.1,5.7c0.4,1.1,0.7,7.8,0.7,17.4v15.6H128h-13.2l0.2-16.6c0.2-15.6,0.3-16.7,1.5-18.3c1.8-2.4,4.1-4,6.6-4.7C126,187.1,133.2,187.7,135.3,188.8z"/><path fill="#000000" d="M30.7,155.3v6.9h6.9h6.9v-6.9v-6.9h-6.9h-6.9V155.3z"/><path fill="#000000" d="M53.9,155.3v6.9h6.9h6.9v-6.9v-6.9h-6.9h-6.9V155.3z"/><path fill="#000000" d="M30.7,181v6.9h6.9h6.9V181v-6.9h-6.9h-6.9V181z"/><path fill="#000000" d="M53.9,181v6.9h6.9h7l-0.2-6.8l-0.2-6.7l-6.7-0.2l-6.8-0.2V181z"/><path fill="#000000" d="M30.7,209.9v6.9h6.9h6.9v-6.9V203h-6.9h-6.9V209.9z"/><path fill="#000000" d="M53.9,209.9v7l6.8-0.2l6.7-0.2l0.2-6.8l0.2-6.7h-7h-6.9V209.9z"/><path fill="#000000" d="M112.3,158.8v12.9H128h15.7v-12.9v-12.9H128h-15.7V158.8z M138.7,158.8v7.8H128h-10.7v-7.8v-7.8H128h10.7V158.8z"/><path fill="#000000" d="M187,155.3v6.9h6.9h6.9v-6.9v-6.9h-6.9H187V155.3z"/><path fill="#000000" d="M209.6,155.3v6.9h6.9h6.9v-6.9v-6.9h-6.9h-6.9V155.3z"/><path fill="#000000" d="M187,181v6.9h6.9h7l-0.2-6.8l-0.2-6.7l-6.7-0.2l-6.8-0.2V181L187,181z"/><path fill="#000000" d="M210,174.6c-0.3,0.2-0.4,3.3-0.4,6.9v6.5h6.9h6.9V181v-6.9h-6.5C213.4,174.1,210.2,174.3,210,174.6z"/><path fill="#000000" d="M187,209.9v7l6.8-0.2l6.7-0.2l0.2-6.8l0.2-6.7h-7H187V209.9z"/><path fill="#000000" d="M209.7,209.7l0.2,6.8l6.8,0.2l6.7,0.2v-7V203h-6.9h-7L209.7,209.7z"/></g></g></g>
</svg>